<?xml version="1.0" encoding="UTF-8" standalone="no"?>
<svg
   version="1.1"
   id="Layer_1"
   x="0px"
   y="0px"
   viewBox="0 0 16 16"
   xml:space="preserve"
   sodipodi:docname="Grenade2D.svg"
   width="16"
   height="16"
   inkscape:version="1.4 (86a8ad7, 2024-10-11)"
   xmlns:inkscape="http://www.inkscape.org/namespaces/inkscape"
   xmlns:sodipodi="http://sodipodi.sourceforge.net/DTD/sodipodi-0.dtd"
   xmlns="http://www.w3.org/2000/svg"
   xmlns:svg="http://www.w3.org/2000/svg"><defs
     id="defs1" /><sodipodi:namedview
     id="namedview1"
     pagecolor="#505050"
     bordercolor="#ffffff"
     borderopacity="1"
     inkscape:showpageshadow="0"
     inkscape:pageopacity="0"
     inkscape:pagecheckerboard="1"
     inkscape:deskcolor="#505050"
     showgrid="false"
     inkscape:zoom="52.158333"
     inkscape:cx="6.4035789"
     inkscape:cy="7.1992332"
     inkscape:window-width="2560"
     inkscape:window-height="1351"
     inkscape:window-x="2391"
     inkscape:window-y="-9"
     inkscape:window-maximized="1"
     inkscape:current-layer="Layer_1" /><style
     type="text/css"
     id="style1">.st0{fill-rule:evenodd;clip-rule:evenodd;}</style><g
     id="g1"
     inkscape:label="Grenade"><path
       class="st0"
       d="M 4.7120422,3.1811052 C 5.1727561,2.7095938 5.3719184,2.4612404 6.0173971,2.4612404 h 5.0762489 c 0.503904,0 0.916624,-0.4127225 0.916624,-0.9166279 v 0 c 0,-0.5039054 -0.41272,-0.91662786 -0.916624,-0.91662786 H 6.2753486 C 3.0731498,0.62918779 2.0413439,5.4330824 1.7773937,7.9670066 1.6838108,8.8608389 1.6550167,9.9478343 1.709008,10.88366 1.7965914,11.237593 2.3544867,11.189602 2.3568861,10.786477 2.5548491,8.2681501 2.864391,5.07315 4.7120437,3.1811052 Z m 6.1752428,8.6347778 c 0.0132,-0.566293 0.01917,-1.127788 0.01801,-1.686883 -0.0016,-0.5686938 -0.0096,-1.136186 -0.02639,-1.7012801 H 7.2507809 C 7.2339833,8.992814 7.2255846,9.559107 7.2243892,10.129 c -0.00116,0.559095 0.00481,1.120589 0.017993,1.686883 z M 5.237544,5.0539535 H 6.9436236 C 6.8644382,6.0017756 6.8080491,6.9627951 6.7732555,7.9346127 H 3.9369877 C 4.1325514,6.4876843 4.5428741,5.0539535 5.237544,5.0539535 Z m 2.2015863,0 h 1.6184963 1.6328924 c 0,0.0072 0,0.013197 0.0016,0.020396 0.07918,0.9454225 0.136772,1.8992434 0.171563,2.860263 H 7.2667122 c 0.034791,-0.9610196 0.092383,-1.9148405 0.1715674,-2.860263 0.00116,-0.0072 0.00116,-0.014398 0.00116,-0.020396 z m 3.7456987,0 h 1.691681 c 0.69467,0 1.106195,1.4337308 1.300555,2.8806592 h -2.820666 c -0.0348,-0.9730173 -0.09239,-1.9328371 -0.17157,-2.8806592 z m 3.052222,3.3749664 c 0.09958,0.9694182 0.103184,1.8704491 0.03361,2.2603751 -0.06,0.329938 -0.153569,0.723464 -0.283145,1.138587 -0.02282,-0.0072 -0.04797,-0.0108 -0.07436,-0.0108 h -2.532724 c 0.0132,-0.563894 0.01917,-1.126589 0.01801,-1.686884 -0.0016,-0.5710925 -0.0096,-1.1373862 -0.02523,-1.7012803 h 2.847065 c 0.0047,0 0.01079,0 0.01677,0 z M 13.823136,12.31139 c -0.501506,1.372542 -1.367746,2.82427 -2.614314,3.03423 0.07561,-1.018608 0.127178,-2.030018 0.158374,-3.03423 z m -3.111023,3.060625 H 9.0576266 7.4163349 c 0,-0.006 0,-0.012 -0.00116,-0.018 -0.075589,-1.024607 -0.1295758,-2.039617 -0.16077,-3.043828 h 3.6185241 c -0.0312,1.004211 -0.08399,2.01802 -0.160773,3.043828 0,0.006 0,0.012 0,0.018 z M 6.9208273,15.348022 C 5.6670628,15.146459 4.7960269,13.688733 4.2921214,12.311392 h 2.4703359 c 0.029993,1.005411 0.082785,2.018021 0.15837,3.03663 z M 4.128952,11.829082 C 3.9993762,11.412761 3.9045941,11.019235 3.8458049,10.689297 3.7750207,10.29937 3.7798178,9.3983396 3.8781969,8.4277214 c 0.0084,0.00116 0.017993,0.00116 0.027595,0.00116 h 2.8506653 c -0.015594,0.562694 -0.023993,1.130187 -0.025196,1.7012806 -0.00116,0.560294 0.00481,1.121789 0.017993,1.686883 H 4.2069311 c -0.027595,-0.0012 -0.053987,0.0036 -0.077985,0.012 z M 7.3107546,2.7443872 H 10.7985 V 4.7000201 H 7.3107546 Z"
       id="path1"
       style="stroke-width:0.119978;stroke:none;fill:#8da5f3;fill-opacity:1"
       inkscape:label="Grenade2D" /></g></svg>
