<?xml version="1.0" encoding="UTF-8" standalone="no"?>
<svg
   width="16"
   height="16"
   viewBox="0 0 64 64"
   version="1.1"
   id="svg1"
   sodipodi:docname="Projectile2D.svg"
   inkscape:version="1.4 (86a8ad7, 2024-10-11)"
   xmlns:inkscape="http://www.inkscape.org/namespaces/inkscape"
   xmlns:sodipodi="http://sodipodi.sourceforge.net/DTD/sodipodi-0.dtd"
   xmlns="http://www.w3.org/2000/svg"
   xmlns:svg="http://www.w3.org/2000/svg">
  <defs
     id="defs1" />
  <sodipodi:namedview
     id="namedview1"
     pagecolor="#505050"
     bordercolor="#ffffff"
     borderopacity="1"
     inkscape:showpageshadow="0"
     inkscape:pageopacity="0"
     inkscape:pagecheckerboard="1"
     inkscape:deskcolor="#505050"
     inkscape:zoom="50.071999"
     inkscape:cx="10.464931"
     inkscape:cy="8.7374183"
     inkscape:window-width="2560"
     inkscape:window-height="1351"
     inkscape:window-x="2391"
     inkscape:window-y="-9"
     inkscape:window-maximized="1"
     inkscape:current-layer="svg1" />
  <path
     fill="#000000"
     d="M 2.5363223,2.8980779 C 0.53134459,5.1800864 2.8721527,8.326654 2.8721527,8.326654 L 17.70827,26.162395 c 1.348084,-1.503652 2.763301,-3.003217 4.246145,-4.486185 1.378554,-1.378554 2.764539,-2.696789 4.153002,-3.955819 L 7.9547198,2.5902334 c 0,0 -2.9730776,-2.47534881 -5.4183975,0.3078445 z M 56.445395,3.3296735 c -0.285744,0.00533 -0.582139,0.022667 -0.890302,0.050163 C 53.089427,3.5999345 49.994678,4.5589771 46.555971,6.2016 40.936226,8.886374 34.401285,13.379494 27.907217,19.222434 l -0.0037,-0.0039 c -0.118905,0.107011 -0.237563,0.217249 -0.356219,0.32513 -0.238677,0.216754 -0.477602,0.434003 -0.715907,0.654225 -0.0042,0.0037 -0.0078,0.008 -0.01177,0.01164 -0.346187,0.319929 -0.691755,0.640352 -1.037322,0.967713 -0.01325,0.01239 -0.02539,0.02601 -0.03877,0.03839 -0.359192,0.340614 -0.717888,0.688905 -1.075965,1.037445 -0.359441,0.349904 -0.718013,0.702779 -1.07609,1.060608 -0.0097,0.0096 -0.02105,0.01734 -0.03096,0.027 l -0.100571,0.100571 C 15.646259,31.274812 9.682557,39.498328 6.3984275,46.358895 c -1.6493107,3.445767 -2.6165281,6.547947 -2.841085,9.018693 -0.2244331,2.470745 0.2662975,4.214313 1.3587367,5.306628 1.0921914,1.092192 2.835759,1.582922 5.3065048,1.358489 2.470745,-0.224433 5.57305,-1.18781 9.018568,-2.837121 4.517769,-2.162584 9.62486,-5.488454 14.824351,-9.738439 L 32.455331,47.531843 C 23.026541,55.413507 14.790144,59.561927 12.393838,57.16562 9.7618269,54.53361 15.022875,44.847812 24.458603,34.282611 l 0.04261,0.05053 c 1.56967,-1.743567 3.242142,-3.505961 5.008624,-5.271824 1.590354,-1.590106 3.185042,-3.101808 4.764867,-4.532508 l -0.05053,-0.04248 c 10.673695,-9.59464 20.506144,-14.9714967 23.161688,-12.316201 2.422192,2.421945 -1.844266,10.818121 -9.893264,20.374858 l 1.93939,1.613888 c 4.365297,-5.300932 7.769694,-10.516152 9.966711,-15.114554 1.64287,-3.438705 2.605629,-6.533578 2.825603,-8.999122 C 62.444149,7.5795347 61.947473,5.8398064 60.853919,4.7465003 59.897106,3.7895631 58.445351,3.2916487 56.44527,3.3295496 Z M 36.066449,26.022806 c -1.631846,1.47021 -3.278308,3.031209 -4.923407,4.675689 -1.822466,1.82197 -3.541634,3.640597 -5.147594,5.434328 l 8.228718,9.893138 c -0.0021,0.0017 -0.0056,0.002 -0.0076,0.0037 l 1.625654,1.950785 0.0037,-0.0037 5.701244,6.85487 c -3.191855,0.831591 -6.530111,0.657693 -9.540883,-0.948391 0.611865,0.810536 1.202302,1.620451 1.947068,2.365093 7.298782,7.29903 18.18007,8.26761 24.287821,2.15986 6.107999,-6.107999 5.143011,-16.989164 -2.155895,-24.288069 -0.456174,-0.456423 -0.841748,-0.917426 -1.323685,-1.324056 -0.305065,-0.257008 -0.661656,-0.459519 -0.975516,-0.696586 1.825934,3.12621 2.055693,6.502862 1.192146,9.688277 z"
     id="path1"
     inkscape:label="Projectile2D"
     sodipodi:nodetypes="scccccscccccccccccccccccssccscccccccccccccccccccccccsccccc"
     style="fill:#8da5f3;fill-opacity:1;stroke:none;stroke-width:0.123859" />
</svg>
